<?xml version="1.0" encoding="UTF-8" standalone="no"?>
<!DOCTYPE svg PUBLIC "-//W3C//DTD SVG 1.1//EN"
 "http://www.w3.org/Graphics/SVG/1.1/DTD/svg11.dtd">
<!-- Generated by graphviz version 2.38.0 (20140413.2041)
 -->
<!-- Title: controllers_diagram Pages: 1 -->
<svg width="776pt" height="726pt"
 viewBox="0.00 0.00 776.00 726.00" xmlns="http://www.w3.org/2000/svg" xmlns:xlink="http://www.w3.org/1999/xlink">
<g id="graph0" class="graph" transform="scale(1 1) rotate(0) translate(292 434)">
<title>controllers_diagram</title>
<polygon fill="none" stroke="none" points="-292,292 -292,-434 484,-434 484,292 -292,292"/>
<!-- _diagram_info -->
<g id="node1" class="node"><title>_diagram_info</title>
<text text-anchor="start" x="8" y="152.4" font-family="Times,serif" font-size="13.00">Controllers diagram</text>
<text text-anchor="start" x="8" y="166.4" font-family="Times,serif" font-size="13.00">Date: May 28 2018 &#45; 22:36</text>
<text text-anchor="start" x="8" y="180.4" font-family="Times,serif" font-size="13.00">Migration version: 20180528235644</text>
<text text-anchor="start" x="8" y="194.4" font-family="Times,serif" font-size="13.00">Generated by RailRoady 1.5.3</text>
<text text-anchor="start" x="8" y="208.4" font-family="Times,serif" font-size="13.00">http://railroady.prestonlee.com</text>
</g>
<!-- PermissionRolesController -->
<g id="node2" class="node"><title>PermissionRolesController</title>
<path fill="none" stroke="black" d="M-78,107.5C-78,107.5 62,107.5 62,107.5 68,107.5 74,101.5 74,95.5 74,95.5 74,-93.5 74,-93.5 74,-99.5 68,-105.5 62,-105.5 62,-105.5 -78,-105.5 -78,-105.5 -84,-105.5 -90,-99.5 -90,-93.5 -90,-93.5 -90,95.5 -90,95.5 -90,101.5 -84,107.5 -78,107.5"/>
<text text-anchor="middle" x="-8" y="-90.3" font-family="Times,serif" font-size="14.00">PermissionRolesController</text>
<polyline fill="none" stroke="black" points="-90,-82.5 74,-82.5 "/>
<text text-anchor="start" x="-82" y="-67.3" font-family="Times,serif" font-size="14.00">create</text>
<text text-anchor="start" x="-82" y="-52.3" font-family="Times,serif" font-size="14.00">destroy</text>
<text text-anchor="start" x="-82" y="-37.3" font-family="Times,serif" font-size="14.00">edit</text>
<text text-anchor="start" x="-82" y="-22.3" font-family="Times,serif" font-size="14.00">index</text>
<text text-anchor="start" x="-82" y="-7.3" font-family="Times,serif" font-size="14.00">new</text>
<text text-anchor="start" x="-82" y="7.7" font-family="Times,serif" font-size="14.00">show</text>
<text text-anchor="start" x="-82" y="22.7" font-family="Times,serif" font-size="14.00">update</text>
<polyline fill="none" stroke="black" points="-90,30.5 74,30.5 "/>
<polyline fill="none" stroke="black" points="-90,54.5 74,54.5 "/>
<text text-anchor="start" x="-82" y="69.7" font-family="Times,serif" font-size="14.00">_layout</text>
<text text-anchor="start" x="-82" y="84.7" font-family="Times,serif" font-size="14.00">permission_role_params</text>
<text text-anchor="start" x="-82" y="99.7" font-family="Times,serif" font-size="14.00">set_permission_role</text>
</g>
<!-- ApplicationController -->
<g id="node3" class="node"><title>ApplicationController</title>
<path fill="none" stroke="black" d="M336,-216.5C336,-216.5 468,-216.5 468,-216.5 474,-216.5 480,-222.5 480,-228.5 480,-228.5 480,-297.5 480,-297.5 480,-303.5 474,-309.5 468,-309.5 468,-309.5 336,-309.5 336,-309.5 330,-309.5 324,-303.5 324,-297.5 324,-297.5 324,-228.5 324,-228.5 324,-222.5 330,-216.5 336,-216.5"/>
<text text-anchor="middle" x="402" y="-294.3" font-family="Times,serif" font-size="14.00">ApplicationController</text>
<polyline fill="none" stroke="black" points="324,-286.5 480,-286.5 "/>
<text text-anchor="start" x="332" y="-271.3" font-family="Times,serif" font-size="14.00">configure_devise_params</text>
<polyline fill="none" stroke="black" points="324,-263.5 480,-263.5 "/>
<polyline fill="none" stroke="black" points="324,-239.5 480,-239.5 "/>
<text text-anchor="start" x="332" y="-224.3" font-family="Times,serif" font-size="14.00">_layout</text>
</g>
<!-- DepartmentsController -->
<g id="node4" class="node"><title>DepartmentsController</title>
<path fill="none" stroke="black" d="M120,107.5C120,107.5 238,107.5 238,107.5 244,107.5 250,101.5 250,95.5 250,95.5 250,-93.5 250,-93.5 250,-99.5 244,-105.5 238,-105.5 238,-105.5 120,-105.5 120,-105.5 114,-105.5 108,-99.5 108,-93.5 108,-93.5 108,95.5 108,95.5 108,101.5 114,107.5 120,107.5"/>
<text text-anchor="middle" x="179" y="-90.3" font-family="Times,serif" font-size="14.00">DepartmentsController</text>
<polyline fill="none" stroke="black" points="108,-82.5 250,-82.5 "/>
<text text-anchor="start" x="116" y="-67.3" font-family="Times,serif" font-size="14.00">create</text>
<text text-anchor="start" x="116" y="-52.3" font-family="Times,serif" font-size="14.00">destroy</text>
<text text-anchor="start" x="116" y="-37.3" font-family="Times,serif" font-size="14.00">edit</text>
<text text-anchor="start" x="116" y="-22.3" font-family="Times,serif" font-size="14.00">index</text>
<text text-anchor="start" x="116" y="-7.3" font-family="Times,serif" font-size="14.00">new</text>
<text text-anchor="start" x="116" y="7.7" font-family="Times,serif" font-size="14.00">show</text>
<text text-anchor="start" x="116" y="22.7" font-family="Times,serif" font-size="14.00">update</text>
<polyline fill="none" stroke="black" points="108,30.5 250,30.5 "/>
<polyline fill="none" stroke="black" points="108,54.5 250,54.5 "/>
<text text-anchor="start" x="116" y="69.7" font-family="Times,serif" font-size="14.00">_layout</text>
<text text-anchor="start" x="116" y="84.7" font-family="Times,serif" font-size="14.00">department_params</text>
<text text-anchor="start" x="116" y="99.7" font-family="Times,serif" font-size="14.00">set_department</text>
</g>
<!-- HomeController -->
<g id="node5" class="node"><title>HomeController</title>
<path fill="none" stroke="black" d="M-150,233.5C-150,233.5 -68,233.5 -68,233.5 -62,233.5 -56,227.5 -56,221.5 -56,221.5 -56,152.5 -56,152.5 -56,146.5 -62,140.5 -68,140.5 -68,140.5 -150,140.5 -150,140.5 -156,140.5 -162,146.5 -162,152.5 -162,152.5 -162,221.5 -162,221.5 -162,227.5 -156,233.5 -150,233.5"/>
<text text-anchor="middle" x="-109" y="155.7" font-family="Times,serif" font-size="14.00">HomeController</text>
<polyline fill="none" stroke="black" points="-162,163.5 -56,163.5 "/>
<text text-anchor="start" x="-154" y="178.7" font-family="Times,serif" font-size="14.00">index</text>
<polyline fill="none" stroke="black" points="-162,186.5 -56,186.5 "/>
<polyline fill="none" stroke="black" points="-162,210.5 -56,210.5 "/>
<text text-anchor="start" x="-154" y="225.7" font-family="Times,serif" font-size="14.00">_layout</text>
</g>
<!-- PqrsController -->
<g id="node6" class="node"><title>PqrsController</title>
<path fill="none" stroke="black" d="M-276,287.5C-276,287.5 -204,287.5 -204,287.5 -198,287.5 -192,281.5 -192,275.5 -192,275.5 -192,86.5 -192,86.5 -192,80.5 -198,74.5 -204,74.5 -204,74.5 -276,74.5 -276,74.5 -282,74.5 -288,80.5 -288,86.5 -288,86.5 -288,275.5 -288,275.5 -288,281.5 -282,287.5 -276,287.5"/>
<text text-anchor="middle" x="-240" y="89.7" font-family="Times,serif" font-size="14.00">PqrsController</text>
<polyline fill="none" stroke="black" points="-288,97.5 -192,97.5 "/>
<text text-anchor="start" x="-280" y="112.7" font-family="Times,serif" font-size="14.00">create</text>
<text text-anchor="start" x="-280" y="127.7" font-family="Times,serif" font-size="14.00">destroy</text>
<text text-anchor="start" x="-280" y="142.7" font-family="Times,serif" font-size="14.00">edit</text>
<text text-anchor="start" x="-280" y="157.7" font-family="Times,serif" font-size="14.00">index</text>
<text text-anchor="start" x="-280" y="172.7" font-family="Times,serif" font-size="14.00">new</text>
<text text-anchor="start" x="-280" y="187.7" font-family="Times,serif" font-size="14.00">show</text>
<text text-anchor="start" x="-280" y="202.7" font-family="Times,serif" font-size="14.00">update</text>
<polyline fill="none" stroke="black" points="-288,210.5 -192,210.5 "/>
<polyline fill="none" stroke="black" points="-288,234.5 -192,234.5 "/>
<text text-anchor="start" x="-280" y="249.7" font-family="Times,serif" font-size="14.00">_layout</text>
<text text-anchor="start" x="-280" y="264.7" font-family="Times,serif" font-size="14.00">pqr_params</text>
<text text-anchor="start" x="-280" y="279.7" font-family="Times,serif" font-size="14.00">set_pqr</text>
</g>
<!-- RolesController -->
<g id="node7" class="node"><title>RolesController</title>
<path fill="none" stroke="black" d="M300.5,287.5C300.5,287.5 379.5,287.5 379.5,287.5 385.5,287.5 391.5,281.5 391.5,275.5 391.5,275.5 391.5,86.5 391.5,86.5 391.5,80.5 385.5,74.5 379.5,74.5 379.5,74.5 300.5,74.5 300.5,74.5 294.5,74.5 288.5,80.5 288.5,86.5 288.5,86.5 288.5,275.5 288.5,275.5 288.5,281.5 294.5,287.5 300.5,287.5"/>
<text text-anchor="middle" x="340" y="89.7" font-family="Times,serif" font-size="14.00">RolesController</text>
<polyline fill="none" stroke="black" points="288.5,97.5 391.5,97.5 "/>
<text text-anchor="start" x="296.5" y="112.7" font-family="Times,serif" font-size="14.00">create</text>
<text text-anchor="start" x="296.5" y="127.7" font-family="Times,serif" font-size="14.00">destroy</text>
<text text-anchor="start" x="296.5" y="142.7" font-family="Times,serif" font-size="14.00">edit</text>
<text text-anchor="start" x="296.5" y="157.7" font-family="Times,serif" font-size="14.00">index</text>
<text text-anchor="start" x="296.5" y="172.7" font-family="Times,serif" font-size="14.00">new</text>
<text text-anchor="start" x="296.5" y="187.7" font-family="Times,serif" font-size="14.00">show</text>
<text text-anchor="start" x="296.5" y="202.7" font-family="Times,serif" font-size="14.00">update</text>
<polyline fill="none" stroke="black" points="288.5,210.5 391.5,210.5 "/>
<polyline fill="none" stroke="black" points="288.5,234.5 391.5,234.5 "/>
<text text-anchor="start" x="296.5" y="249.7" font-family="Times,serif" font-size="14.00">_layout</text>
<text text-anchor="start" x="296.5" y="264.7" font-family="Times,serif" font-size="14.00">role_params</text>
<text text-anchor="start" x="296.5" y="279.7" font-family="Times,serif" font-size="14.00">set_role</text>
</g>
<!-- StatusesController -->
<g id="node8" class="node"><title>StatusesController</title>
<path fill="none" stroke="black" d="M-222,35.5C-222,35.5 -130,35.5 -130,35.5 -124,35.5 -118,29.5 -118,23.5 -118,23.5 -118,-165.5 -118,-165.5 -118,-171.5 -124,-177.5 -130,-177.5 -130,-177.5 -222,-177.5 -222,-177.5 -228,-177.5 -234,-171.5 -234,-165.5 -234,-165.5 -234,23.5 -234,23.5 -234,29.5 -228,35.5 -222,35.5"/>
<text text-anchor="middle" x="-176" y="-162.3" font-family="Times,serif" font-size="14.00">StatusesController</text>
<polyline fill="none" stroke="black" points="-234,-154.5 -118,-154.5 "/>
<text text-anchor="start" x="-226" y="-139.3" font-family="Times,serif" font-size="14.00">create</text>
<text text-anchor="start" x="-226" y="-124.3" font-family="Times,serif" font-size="14.00">destroy</text>
<text text-anchor="start" x="-226" y="-109.3" font-family="Times,serif" font-size="14.00">edit</text>
<text text-anchor="start" x="-226" y="-94.3" font-family="Times,serif" font-size="14.00">index</text>
<text text-anchor="start" x="-226" y="-79.3" font-family="Times,serif" font-size="14.00">new</text>
<text text-anchor="start" x="-226" y="-64.3" font-family="Times,serif" font-size="14.00">show</text>
<text text-anchor="start" x="-226" y="-49.3" font-family="Times,serif" font-size="14.00">update</text>
<polyline fill="none" stroke="black" points="-234,-41.5 -118,-41.5 "/>
<polyline fill="none" stroke="black" points="-234,-17.5 -118,-17.5 "/>
<text text-anchor="start" x="-226" y="-2.3" font-family="Times,serif" font-size="14.00">_layout</text>
<text text-anchor="start" x="-226" y="12.7" font-family="Times,serif" font-size="14.00">set_status</text>
<text text-anchor="start" x="-226" y="27.7" font-family="Times,serif" font-size="14.00">status_params</text>
</g>
<!-- LogsController -->
<g id="node9" class="node"><title>LogsController</title>
<path fill="none" stroke="black" d="M336.5,35.5C336.5,35.5 411.5,35.5 411.5,35.5 417.5,35.5 423.5,29.5 423.5,23.5 423.5,23.5 423.5,-165.5 423.5,-165.5 423.5,-171.5 417.5,-177.5 411.5,-177.5 411.5,-177.5 336.5,-177.5 336.5,-177.5 330.5,-177.5 324.5,-171.5 324.5,-165.5 324.5,-165.5 324.5,23.5 324.5,23.5 324.5,29.5 330.5,35.5 336.5,35.5"/>
<text text-anchor="middle" x="374" y="-162.3" font-family="Times,serif" font-size="14.00">LogsController</text>
<polyline fill="none" stroke="black" points="324.5,-154.5 423.5,-154.5 "/>
<text text-anchor="start" x="332.5" y="-139.3" font-family="Times,serif" font-size="14.00">create</text>
<text text-anchor="start" x="332.5" y="-124.3" font-family="Times,serif" font-size="14.00">destroy</text>
<text text-anchor="start" x="332.5" y="-109.3" font-family="Times,serif" font-size="14.00">edit</text>
<text text-anchor="start" x="332.5" y="-94.3" font-family="Times,serif" font-size="14.00">index</text>
<text text-anchor="start" x="332.5" y="-79.3" font-family="Times,serif" font-size="14.00">new</text>
<text text-anchor="start" x="332.5" y="-64.3" font-family="Times,serif" font-size="14.00">show</text>
<text text-anchor="start" x="332.5" y="-49.3" font-family="Times,serif" font-size="14.00">update</text>
<polyline fill="none" stroke="black" points="324.5,-41.5 423.5,-41.5 "/>
<polyline fill="none" stroke="black" points="324.5,-17.5 423.5,-17.5 "/>
<text text-anchor="start" x="332.5" y="-2.3" font-family="Times,serif" font-size="14.00">_layout</text>
<text text-anchor="start" x="332.5" y="12.7" font-family="Times,serif" font-size="14.00">log_params</text>
<text text-anchor="start" x="332.5" y="27.7" font-family="Times,serif" font-size="14.00">set_log</text>
</g>
<!-- ExternalFilesController -->
<g id="node10" class="node"><title>ExternalFilesController</title>
<path fill="none" stroke="black" d="M156,-144.5C156,-144.5 276,-144.5 276,-144.5 282,-144.5 288,-150.5 288,-156.5 288,-156.5 288,-345.5 288,-345.5 288,-351.5 282,-357.5 276,-357.5 276,-357.5 156,-357.5 156,-357.5 150,-357.5 144,-351.5 144,-345.5 144,-345.5 144,-156.5 144,-156.5 144,-150.5 150,-144.5 156,-144.5"/>
<text text-anchor="middle" x="216" y="-342.3" font-family="Times,serif" font-size="14.00">ExternalFilesController</text>
<polyline fill="none" stroke="black" points="144,-334.5 288,-334.5 "/>
<text text-anchor="start" x="152" y="-319.3" font-family="Times,serif" font-size="14.00">create</text>
<text text-anchor="start" x="152" y="-304.3" font-family="Times,serif" font-size="14.00">destroy</text>
<text text-anchor="start" x="152" y="-289.3" font-family="Times,serif" font-size="14.00">edit</text>
<text text-anchor="start" x="152" y="-274.3" font-family="Times,serif" font-size="14.00">index</text>
<text text-anchor="start" x="152" y="-259.3" font-family="Times,serif" font-size="14.00">new</text>
<text text-anchor="start" x="152" y="-244.3" font-family="Times,serif" font-size="14.00">show</text>
<text text-anchor="start" x="152" y="-229.3" font-family="Times,serif" font-size="14.00">update</text>
<polyline fill="none" stroke="black" points="144,-221.5 288,-221.5 "/>
<polyline fill="none" stroke="black" points="144,-197.5 288,-197.5 "/>
<text text-anchor="start" x="152" y="-182.3" font-family="Times,serif" font-size="14.00">_layout</text>
<text text-anchor="start" x="152" y="-167.3" font-family="Times,serif" font-size="14.00">external_file_params</text>
<text text-anchor="start" x="152" y="-152.3" font-family="Times,serif" font-size="14.00">set_external_file</text>
</g>
<!-- PermissionsController -->
<g id="node11" class="node"><title>PermissionsController</title>
<path fill="none" stroke="black" d="M-24,-144.5C-24,-144.5 90,-144.5 90,-144.5 96,-144.5 102,-150.5 102,-156.5 102,-156.5 102,-345.5 102,-345.5 102,-351.5 96,-357.5 90,-357.5 90,-357.5 -24,-357.5 -24,-357.5 -30,-357.5 -36,-351.5 -36,-345.5 -36,-345.5 -36,-156.5 -36,-156.5 -36,-150.5 -30,-144.5 -24,-144.5"/>
<text text-anchor="middle" x="33" y="-342.3" font-family="Times,serif" font-size="14.00">PermissionsController</text>
<polyline fill="none" stroke="black" points="-36,-334.5 102,-334.5 "/>
<text text-anchor="start" x="-28" y="-319.3" font-family="Times,serif" font-size="14.00">create</text>
<text text-anchor="start" x="-28" y="-304.3" font-family="Times,serif" font-size="14.00">destroy</text>
<text text-anchor="start" x="-28" y="-289.3" font-family="Times,serif" font-size="14.00">edit</text>
<text text-anchor="start" x="-28" y="-274.3" font-family="Times,serif" font-size="14.00">index</text>
<text text-anchor="start" x="-28" y="-259.3" font-family="Times,serif" font-size="14.00">new</text>
<text text-anchor="start" x="-28" y="-244.3" font-family="Times,serif" font-size="14.00">show</text>
<text text-anchor="start" x="-28" y="-229.3" font-family="Times,serif" font-size="14.00">update</text>
<polyline fill="none" stroke="black" points="-36,-221.5 102,-221.5 "/>
<polyline fill="none" stroke="black" points="-36,-197.5 102,-197.5 "/>
<text text-anchor="start" x="-28" y="-182.3" font-family="Times,serif" font-size="14.00">_layout</text>
<text text-anchor="start" x="-28" y="-167.3" font-family="Times,serif" font-size="14.00">permission_params</text>
<text text-anchor="start" x="-28" y="-152.3" font-family="Times,serif" font-size="14.00">set_permission</text>
</g>
<!-- PqrTrackingsController -->
<g id="node12" class="node"><title>PqrTrackingsController</title>
<path fill="none" stroke="black" d="M-203.5,-216.5C-203.5,-216.5 -82.5,-216.5 -82.5,-216.5 -76.5,-216.5 -70.5,-222.5 -70.5,-228.5 -70.5,-228.5 -70.5,-417.5 -70.5,-417.5 -70.5,-423.5 -76.5,-429.5 -82.5,-429.5 -82.5,-429.5 -203.5,-429.5 -203.5,-429.5 -209.5,-429.5 -215.5,-423.5 -215.5,-417.5 -215.5,-417.5 -215.5,-228.5 -215.5,-228.5 -215.5,-222.5 -209.5,-216.5 -203.5,-216.5"/>
<text text-anchor="middle" x="-143" y="-414.3" font-family="Times,serif" font-size="14.00">PqrTrackingsController</text>
<polyline fill="none" stroke="black" points="-215.5,-406.5 -70.5,-406.5 "/>
<text text-anchor="start" x="-207.5" y="-391.3" font-family="Times,serif" font-size="14.00">create</text>
<text text-anchor="start" x="-207.5" y="-376.3" font-family="Times,serif" font-size="14.00">destroy</text>
<text text-anchor="start" x="-207.5" y="-361.3" font-family="Times,serif" font-size="14.00">edit</text>
<text text-anchor="start" x="-207.5" y="-346.3" font-family="Times,serif" font-size="14.00">index</text>
<text text-anchor="start" x="-207.5" y="-331.3" font-family="Times,serif" font-size="14.00">new</text>
<text text-anchor="start" x="-207.5" y="-316.3" font-family="Times,serif" font-size="14.00">show</text>
<text text-anchor="start" x="-207.5" y="-301.3" font-family="Times,serif" font-size="14.00">update</text>
<polyline fill="none" stroke="black" points="-215.5,-293.5 -70.5,-293.5 "/>
<polyline fill="none" stroke="black" points="-215.5,-269.5 -70.5,-269.5 "/>
<text text-anchor="start" x="-207.5" y="-254.3" font-family="Times,serif" font-size="14.00">_layout</text>
<text text-anchor="start" x="-207.5" y="-239.3" font-family="Times,serif" font-size="14.00">pqr_tracking_params</text>
<text text-anchor="start" x="-207.5" y="-224.3" font-family="Times,serif" font-size="14.00">set_pqr_tracking</text>
</g>
</g>
</svg>
