<?xml version="1.0" encoding="UTF-8" standalone="no"?>
<!DOCTYPE svg PUBLIC "-//W3C//DTD SVG 1.1//EN"
 "http://www.w3.org/Graphics/SVG/1.1/DTD/svg11.dtd">
<!-- Generated by graphviz version 2.38.0 (20140413.2041)
 -->
<!-- Title: models_diagram Pages: 1 -->
<svg width="1305pt" height="981pt"
 viewBox="0.00 0.00 1304.50 981.00" xmlns="http://www.w3.org/2000/svg" xmlns:xlink="http://www.w3.org/1999/xlink">
<g id="graph0" class="graph" transform="scale(1 1) rotate(0) translate(4 977)">
<title>models_diagram</title>
<polygon fill="none" stroke="none" points="-4,4 -4,-977 1300.5,-977 1300.5,4 -4,4"/>
<!-- _diagram_info -->
<g id="node1" class="node"><title>_diagram_info</title>
<text text-anchor="start" x="8" y="-936.6" font-family="Times,serif" font-size="13.00">Models diagram</text>
<text text-anchor="start" x="8" y="-922.6" font-family="Times,serif" font-size="13.00">Date: May 28 2018 &#45; 22:36</text>
<text text-anchor="start" x="8" y="-908.6" font-family="Times,serif" font-size="13.00">Migration version: 20180528235644</text>
<text text-anchor="start" x="8" y="-894.6" font-family="Times,serif" font-size="13.00">Generated by RailRoady 1.5.3</text>
<text text-anchor="start" x="8" y="-880.6" font-family="Times,serif" font-size="13.00">http://railroady.prestonlee.com</text>
</g>
<!-- Status -->
<g id="node2" class="node"><title>Status</title>
<path fill="none" stroke="black" d="M244,-866.5C244,-866.5 378,-866.5 378,-866.5 384,-866.5 390,-872.5 390,-878.5 390,-878.5 390,-945.5 390,-945.5 390,-951.5 384,-957.5 378,-957.5 378,-957.5 244,-957.5 244,-957.5 238,-957.5 232,-951.5 232,-945.5 232,-945.5 232,-878.5 232,-878.5 232,-872.5 238,-866.5 244,-866.5"/>
<text text-anchor="middle" x="311" y="-942.3" font-family="Times,serif" font-size="14.00">Status</text>
<polyline fill="none" stroke="black" points="232,-934.5 390,-934.5 "/>
<text text-anchor="start" x="240" y="-919.3" font-family="Times,serif" font-size="14.00">id :bigint(20)</text>
<text text-anchor="start" x="240" y="-904.3" font-family="Times,serif" font-size="14.00">status_description :int(11)</text>
<text text-anchor="start" x="240" y="-889.3" font-family="Times,serif" font-size="14.00">created_at :datetime</text>
<text text-anchor="start" x="240" y="-874.3" font-family="Times,serif" font-size="14.00">updated_at :datetime</text>
</g>
<!-- ExternalFile -->
<g id="node3" class="node"><title>ExternalFile</title>
<path fill="none" stroke="black" d="M420.5,-866.5C420.5,-866.5 527.5,-866.5 527.5,-866.5 533.5,-866.5 539.5,-872.5 539.5,-878.5 539.5,-878.5 539.5,-945.5 539.5,-945.5 539.5,-951.5 533.5,-957.5 527.5,-957.5 527.5,-957.5 420.5,-957.5 420.5,-957.5 414.5,-957.5 408.5,-951.5 408.5,-945.5 408.5,-945.5 408.5,-878.5 408.5,-878.5 408.5,-872.5 414.5,-866.5 420.5,-866.5"/>
<text text-anchor="middle" x="474" y="-942.3" font-family="Times,serif" font-size="14.00">ExternalFile</text>
<polyline fill="none" stroke="black" points="408.5,-934.5 539.5,-934.5 "/>
<text text-anchor="start" x="416.5" y="-919.3" font-family="Times,serif" font-size="14.00">id :bigint(20)</text>
<text text-anchor="start" x="416.5" y="-904.3" font-family="Times,serif" font-size="14.00">url :varchar(255)</text>
<text text-anchor="start" x="416.5" y="-889.3" font-family="Times,serif" font-size="14.00">created_at :datetime</text>
<text text-anchor="start" x="416.5" y="-874.3" font-family="Times,serif" font-size="14.00">updated_at :datetime</text>
</g>
<!-- Pqr -->
<g id="node13" class="node"><title>Pqr</title>
<path fill="none" stroke="black" d="M404,-602.5C404,-602.5 544,-602.5 544,-602.5 550,-602.5 556,-608.5 556,-614.5 556,-614.5 556,-801.5 556,-801.5 556,-807.5 550,-813.5 544,-813.5 544,-813.5 404,-813.5 404,-813.5 398,-813.5 392,-807.5 392,-801.5 392,-801.5 392,-614.5 392,-614.5 392,-608.5 398,-602.5 404,-602.5"/>
<text text-anchor="middle" x="474" y="-798.3" font-family="Times,serif" font-size="14.00">Pqr</text>
<polyline fill="none" stroke="black" points="392,-790.5 556,-790.5 "/>
<text text-anchor="start" x="400" y="-775.3" font-family="Times,serif" font-size="14.00">id :bigint(20)</text>
<text text-anchor="start" x="400" y="-760.3" font-family="Times,serif" font-size="14.00">first_name :varchar(255)</text>
<text text-anchor="start" x="400" y="-745.3" font-family="Times,serif" font-size="14.00">last_name :varchar(255)</text>
<text text-anchor="start" x="400" y="-730.3" font-family="Times,serif" font-size="14.00">email :varchar(255)</text>
<text text-anchor="start" x="400" y="-715.3" font-family="Times,serif" font-size="14.00">title :varchar(255)</text>
<text text-anchor="start" x="400" y="-700.3" font-family="Times,serif" font-size="14.00">subject :varchar(255)</text>
<text text-anchor="start" x="400" y="-685.3" font-family="Times,serif" font-size="14.00">description :varchar(255)</text>
<text text-anchor="start" x="400" y="-670.3" font-family="Times,serif" font-size="14.00">date :datetime</text>
<text text-anchor="start" x="400" y="-655.3" font-family="Times,serif" font-size="14.00">responseDate :datetime</text>
<text text-anchor="start" x="400" y="-640.3" font-family="Times,serif" font-size="14.00">external_file_id :bigint(20)</text>
<text text-anchor="start" x="400" y="-625.3" font-family="Times,serif" font-size="14.00">created_at :datetime</text>
<text text-anchor="start" x="400" y="-610.3" font-family="Times,serif" font-size="14.00">updated_at :datetime</text>
</g>
<!-- ExternalFile&#45;&gt;Pqr -->
<g id="edge1" class="edge"><title>ExternalFile&#45;&gt;Pqr</title>
<path fill="none" stroke="#0563f3" d="M474,-857.856C474,-847.162 474,-835.537 474,-823.655"/>
<ellipse fill="none" stroke="#0563f3" cx="474" cy="-862.17" rx="4" ry="4"/>
<polygon fill="#0563f3" stroke="#0563f3" points="474,-823.629 478.5,-813.629 474,-818.629 474,-813.629 474,-813.629 474,-813.629 474,-818.629 469.5,-813.629 474,-823.629 474,-823.629"/>
</g>
<!-- Permission -->
<g id="node4" class="node"><title>Permission</title>
<path fill="none" stroke="black" d="M586,-866.5C586,-866.5 716,-866.5 716,-866.5 722,-866.5 728,-872.5 728,-878.5 728,-878.5 728,-945.5 728,-945.5 728,-951.5 722,-957.5 716,-957.5 716,-957.5 586,-957.5 586,-957.5 580,-957.5 574,-951.5 574,-945.5 574,-945.5 574,-878.5 574,-878.5 574,-872.5 580,-866.5 586,-866.5"/>
<text text-anchor="middle" x="651" y="-942.3" font-family="Times,serif" font-size="14.00">Permission</text>
<polyline fill="none" stroke="black" points="574,-934.5 728,-934.5 "/>
<text text-anchor="start" x="582" y="-919.3" font-family="Times,serif" font-size="14.00">id :bigint(20)</text>
<text text-anchor="start" x="582" y="-904.3" font-family="Times,serif" font-size="14.00">description :varchar(255)</text>
<text text-anchor="start" x="582" y="-889.3" font-family="Times,serif" font-size="14.00">created_at :datetime</text>
<text text-anchor="start" x="582" y="-874.3" font-family="Times,serif" font-size="14.00">updated_at :datetime</text>
</g>
<!-- Role -->
<g id="node8" class="node"><title>Role</title>
<path fill="none" stroke="black" d="M586,-655C586,-655 716,-655 716,-655 722,-655 728,-661 728,-667 728,-667 728,-749 728,-749 728,-755 722,-761 716,-761 716,-761 586,-761 586,-761 580,-761 574,-755 574,-749 574,-749 574,-667 574,-667 574,-661 580,-655 586,-655"/>
<text text-anchor="middle" x="651" y="-745.8" font-family="Times,serif" font-size="14.00">Role</text>
<polyline fill="none" stroke="black" points="574,-738 728,-738 "/>
<text text-anchor="start" x="582" y="-722.8" font-family="Times,serif" font-size="14.00">id :bigint(20)</text>
<text text-anchor="start" x="582" y="-707.8" font-family="Times,serif" font-size="14.00">name :varchar(255)</text>
<text text-anchor="start" x="582" y="-692.8" font-family="Times,serif" font-size="14.00">description :varchar(255)</text>
<text text-anchor="start" x="582" y="-677.8" font-family="Times,serif" font-size="14.00">created_at :datetime</text>
<text text-anchor="start" x="582" y="-662.8" font-family="Times,serif" font-size="14.00">updated_at :datetime</text>
</g>
<!-- Permission&#45;&gt;Role -->
<g id="edge2" class="edge"><title>Permission&#45;&gt;Role</title>
<path fill="none" stroke="#d9ed9e" d="M651,-856.027C651,-829.845 651,-798.414 651,-771.345"/>
<polygon fill="#d9ed9e" stroke="#d9ed9e" points="651,-856.17 646.5,-866.17 651,-861.17 651,-866.17 651,-866.17 651,-866.17 651,-861.17 655.5,-866.17 651,-856.17 651,-856.17"/>
<polygon fill="#d9ed9e" stroke="#d9ed9e" points="651,-771.205 655.5,-761.205 651,-766.205 651,-761.205 651,-761.205 651,-761.205 651,-766.205 646.5,-761.205 651,-771.205 651,-771.205"/>
</g>
<!-- Ability -->
<g id="node5" class="node"><title>Ability</title>
<polygon fill="none" stroke="black" points="746.5,-889 746.5,-935 801.5,-935 801.5,-889 746.5,-889"/>
<text text-anchor="middle" x="774" y="-919.8" font-family="Times,serif" font-size="14.00">Ability</text>
<polyline fill="none" stroke="black" points="746.5,-912 801.5,-912 "/>
<text text-anchor="middle" x="774" y="-896.8" font-family="Times,serif" font-size="14.00"> </text>
</g>
<!-- Department -->
<g id="node6" class="node"><title>Department</title>
<path fill="none" stroke="black" d="M758,-655C758,-655 888,-655 888,-655 894,-655 900,-661 900,-667 900,-667 900,-749 900,-749 900,-755 894,-761 888,-761 888,-761 758,-761 758,-761 752,-761 746,-755 746,-749 746,-749 746,-667 746,-667 746,-661 752,-655 758,-655"/>
<text text-anchor="middle" x="823" y="-745.8" font-family="Times,serif" font-size="14.00">Department</text>
<polyline fill="none" stroke="black" points="746,-738 900,-738 "/>
<text text-anchor="start" x="754" y="-722.8" font-family="Times,serif" font-size="14.00">id :bigint(20)</text>
<text text-anchor="start" x="754" y="-707.8" font-family="Times,serif" font-size="14.00">name :varchar(255)</text>
<text text-anchor="start" x="754" y="-692.8" font-family="Times,serif" font-size="14.00">description :varchar(255)</text>
<text text-anchor="start" x="754" y="-677.8" font-family="Times,serif" font-size="14.00">created_at :datetime</text>
<text text-anchor="start" x="754" y="-662.8" font-family="Times,serif" font-size="14.00">updated_at :datetime</text>
</g>
<!-- User -->
<g id="node9" class="node"><title>User</title>
<path fill="none" stroke="black" d="M678,-248.5C678,-248.5 868,-248.5 868,-248.5 874,-248.5 880,-254.5 880,-260.5 880,-260.5 880,-552.5 880,-552.5 880,-558.5 874,-564.5 868,-564.5 868,-564.5 678,-564.5 678,-564.5 672,-564.5 666,-558.5 666,-552.5 666,-552.5 666,-260.5 666,-260.5 666,-254.5 672,-248.5 678,-248.5"/>
<text text-anchor="middle" x="773" y="-549.3" font-family="Times,serif" font-size="14.00">User</text>
<polyline fill="none" stroke="black" points="666,-541.5 880,-541.5 "/>
<text text-anchor="start" x="674" y="-526.3" font-family="Times,serif" font-size="14.00">id :bigint(20)</text>
<text text-anchor="start" x="674" y="-511.3" font-family="Times,serif" font-size="14.00">email :varchar(255)</text>
<text text-anchor="start" x="674" y="-496.3" font-family="Times,serif" font-size="14.00">encrypted_password :varchar(255)</text>
<text text-anchor="start" x="674" y="-481.3" font-family="Times,serif" font-size="14.00">reset_password_token :varchar(255)</text>
<text text-anchor="start" x="674" y="-466.3" font-family="Times,serif" font-size="14.00">reset_password_sent_at :datetime</text>
<text text-anchor="start" x="674" y="-451.3" font-family="Times,serif" font-size="14.00">remember_created_at :datetime</text>
<text text-anchor="start" x="674" y="-436.3" font-family="Times,serif" font-size="14.00">sign_in_count :int(11)</text>
<text text-anchor="start" x="674" y="-421.3" font-family="Times,serif" font-size="14.00">current_sign_in_at :datetime</text>
<text text-anchor="start" x="674" y="-406.3" font-family="Times,serif" font-size="14.00">last_sign_in_at :datetime</text>
<text text-anchor="start" x="674" y="-391.3" font-family="Times,serif" font-size="14.00">current_sign_in_ip :varchar(255)</text>
<text text-anchor="start" x="674" y="-376.3" font-family="Times,serif" font-size="14.00">last_sign_in_ip :varchar(255)</text>
<text text-anchor="start" x="674" y="-361.3" font-family="Times,serif" font-size="14.00">first_name :varchar(255)</text>
<text text-anchor="start" x="674" y="-346.3" font-family="Times,serif" font-size="14.00">last_name :varchar(255)</text>
<text text-anchor="start" x="674" y="-331.3" font-family="Times,serif" font-size="14.00">phone_number :varchar(255)</text>
<text text-anchor="start" x="674" y="-316.3" font-family="Times,serif" font-size="14.00">birthdate :date</text>
<text text-anchor="start" x="674" y="-301.3" font-family="Times,serif" font-size="14.00">created_at :datetime</text>
<text text-anchor="start" x="674" y="-286.3" font-family="Times,serif" font-size="14.00">updated_at :datetime</text>
<text text-anchor="start" x="674" y="-271.3" font-family="Times,serif" font-size="14.00">role_id :bigint(20)</text>
<text text-anchor="start" x="674" y="-256.3" font-family="Times,serif" font-size="14.00">department_id :bigint(20)</text>
</g>
<!-- Department&#45;&gt;User -->
<g id="edge3" class="edge"><title>Department&#45;&gt;User</title>
<path fill="none" stroke="#415ec4" d="M812.961,-646.869C809.402,-625.546 805.202,-600.388 800.885,-574.533"/>
<ellipse fill="none" stroke="#415ec4" cx="813.632" cy="-650.886" rx="4.00001" ry="4.00001"/>
<polygon fill="#415ec4" stroke="#415ec4" points="800.873,-574.459 803.665,-563.855 800.05,-569.528 799.226,-564.596 799.226,-564.596 799.226,-564.596 800.05,-569.528 794.788,-565.337 800.873,-574.459 800.873,-574.459"/>
</g>
<!-- PqrTracking -->
<g id="node7" class="node"><title>PqrTracking</title>
<path fill="none" stroke="black" d="M706.5,-0.5C706.5,-0.5 839.5,-0.5 839.5,-0.5 845.5,-0.5 851.5,-6.5 851.5,-12.5 851.5,-12.5 851.5,-184.5 851.5,-184.5 851.5,-190.5 845.5,-196.5 839.5,-196.5 839.5,-196.5 706.5,-196.5 706.5,-196.5 700.5,-196.5 694.5,-190.5 694.5,-184.5 694.5,-184.5 694.5,-12.5 694.5,-12.5 694.5,-6.5 700.5,-0.5 706.5,-0.5"/>
<text text-anchor="middle" x="773" y="-181.3" font-family="Times,serif" font-size="14.00">PqrTracking</text>
<polyline fill="none" stroke="black" points="694.5,-173.5 851.5,-173.5 "/>
<text text-anchor="start" x="702.5" y="-158.3" font-family="Times,serif" font-size="14.00">id :bigint(20)</text>
<text text-anchor="start" x="702.5" y="-143.3" font-family="Times,serif" font-size="14.00">pqr_id :bigint(20)</text>
<text text-anchor="start" x="702.5" y="-128.3" font-family="Times,serif" font-size="14.00">actual_user_id :bigint(20)</text>
<text text-anchor="start" x="702.5" y="-113.3" font-family="Times,serif" font-size="14.00">dest_user_id :bigint(20)</text>
<text text-anchor="start" x="702.5" y="-98.3" font-family="Times,serif" font-size="14.00">status_id :bigint(20)</text>
<text text-anchor="start" x="702.5" y="-83.3" font-family="Times,serif" font-size="14.00">department_id :bigint(20)</text>
<text text-anchor="start" x="702.5" y="-68.3" font-family="Times,serif" font-size="14.00">date :datetime</text>
<text text-anchor="start" x="702.5" y="-53.3" font-family="Times,serif" font-size="14.00">review :varchar(255)</text>
<text text-anchor="start" x="702.5" y="-38.3" font-family="Times,serif" font-size="14.00">response :varchar(255)</text>
<text text-anchor="start" x="702.5" y="-23.3" font-family="Times,serif" font-size="14.00">created_at :datetime</text>
<text text-anchor="start" x="702.5" y="-8.3" font-family="Times,serif" font-size="14.00">updated_at :datetime</text>
</g>
<!-- Role&#45;&gt;User -->
<g id="edge4" class="edge"><title>Role&#45;&gt;User</title>
<path fill="none" stroke="#6ea0cf" d="M675.366,-647.183C684.151,-625.616 694.547,-600.097 705.222,-573.889"/>
<ellipse fill="none" stroke="#6ea0cf" cx="673.76" cy="-651.127" rx="4.00001" ry="4.00001"/>
<polygon fill="#6ea0cf" stroke="#6ea0cf" points="705.235,-573.857 713.175,-566.294 707.121,-569.227 709.008,-564.596 709.008,-564.596 709.008,-564.596 707.121,-569.227 704.84,-562.898 705.235,-573.857 705.235,-573.857"/>
</g>
<!-- User&#45;&gt;PqrTracking -->
<g id="edge5" class="edge"><title>User&#45;&gt;PqrTracking</title>
<path fill="none" stroke="#3247de" d="M715.903,-240.204C716.18,-231.703 717.163,-223.265 719,-215 719.63,-212.164 720.338,-209.315 721.113,-206.462"/>
<ellipse fill="none" stroke="#3247de" cx="715.875" cy="-244.37" rx="4" ry="4"/>
<polygon fill="#3247de" stroke="#3247de" points="721.148,-206.345 728.31,-198.041 722.572,-201.552 723.996,-196.76 723.996,-196.76 723.996,-196.76 722.572,-201.552 719.683,-195.478 721.148,-206.345 721.148,-206.345"/>
<text text-anchor="middle" x="762.5" y="-218.8" font-family="Times,serif" font-size="14.00">actualTrackings</text>
</g>
<!-- User&#45;&gt;PqrTracking -->
<g id="edge6" class="edge"><title>User&#45;&gt;PqrTracking</title>
<path fill="none" stroke="#f29fd9" d="M807.956,-240.208C807.777,-231.691 807.155,-223.25 806,-215 805.62,-212.286 805.192,-209.546 804.722,-206.791"/>
<ellipse fill="none" stroke="#f29fd9" cx="807.977" cy="-244.393" rx="4" ry="4"/>
<polygon fill="#f29fd9" stroke="#f29fd9" points="804.685,-206.591 807.27,-195.935 803.766,-201.676 802.847,-196.762 802.847,-196.762 802.847,-196.762 803.766,-201.676 798.423,-197.589 804.685,-206.591 804.685,-206.591"/>
<text text-anchor="middle" x="845" y="-218.8" font-family="Times,serif" font-size="14.00">destTrackings</text>
</g>
<!-- ApplicationRecord -->
<g id="node10" class="node"><title>ApplicationRecord</title>
<ellipse fill="none" stroke="black" cx="897" cy="-912" rx="77.1866" ry="18"/>
<text text-anchor="middle" x="897" y="-908.3" font-family="Times,serif" font-size="14.00">ApplicationRecord</text>
</g>
<!-- Log -->
<g id="node11" class="node"><title>Log</title>
<path fill="none" stroke="black" d="M1004.5,-851.5C1004.5,-851.5 1111.5,-851.5 1111.5,-851.5 1117.5,-851.5 1123.5,-857.5 1123.5,-863.5 1123.5,-863.5 1123.5,-960.5 1123.5,-960.5 1123.5,-966.5 1117.5,-972.5 1111.5,-972.5 1111.5,-972.5 1004.5,-972.5 1004.5,-972.5 998.5,-972.5 992.5,-966.5 992.5,-960.5 992.5,-960.5 992.5,-863.5 992.5,-863.5 992.5,-857.5 998.5,-851.5 1004.5,-851.5"/>
<text text-anchor="middle" x="1058" y="-957.3" font-family="Times,serif" font-size="14.00">Log</text>
<polyline fill="none" stroke="black" points="992.5,-949.5 1123.5,-949.5 "/>
<text text-anchor="start" x="1000.5" y="-934.3" font-family="Times,serif" font-size="14.00">id :bigint(20)</text>
<text text-anchor="start" x="1000.5" y="-919.3" font-family="Times,serif" font-size="14.00">action :varchar(255)</text>
<text text-anchor="start" x="1000.5" y="-904.3" font-family="Times,serif" font-size="14.00">date :datetime</text>
<text text-anchor="start" x="1000.5" y="-889.3" font-family="Times,serif" font-size="14.00">table :varchar(255)</text>
<text text-anchor="start" x="1000.5" y="-874.3" font-family="Times,serif" font-size="14.00">created_at :datetime</text>
<text text-anchor="start" x="1000.5" y="-859.3" font-family="Times,serif" font-size="14.00">updated_at :datetime</text>
</g>
<!-- PermissionRole -->
<g id="node12" class="node"><title>PermissionRole</title>
<path fill="none" stroke="black" d="M1153.5,-859C1153.5,-859 1284.5,-859 1284.5,-859 1290.5,-859 1296.5,-865 1296.5,-871 1296.5,-871 1296.5,-953 1296.5,-953 1296.5,-959 1290.5,-965 1284.5,-965 1284.5,-965 1153.5,-965 1153.5,-965 1147.5,-965 1141.5,-959 1141.5,-953 1141.5,-953 1141.5,-871 1141.5,-871 1141.5,-865 1147.5,-859 1153.5,-859"/>
<text text-anchor="middle" x="1219" y="-949.8" font-family="Times,serif" font-size="14.00">PermissionRole</text>
<polyline fill="none" stroke="black" points="1141.5,-942 1296.5,-942 "/>
<text text-anchor="start" x="1149.5" y="-926.8" font-family="Times,serif" font-size="14.00">id :bigint(20)</text>
<text text-anchor="start" x="1149.5" y="-911.8" font-family="Times,serif" font-size="14.00">permission_id :bigint(20)</text>
<text text-anchor="start" x="1149.5" y="-896.8" font-family="Times,serif" font-size="14.00">role_id :bigint(20)</text>
<text text-anchor="start" x="1149.5" y="-881.8" font-family="Times,serif" font-size="14.00">created_at :datetime</text>
<text text-anchor="start" x="1149.5" y="-866.8" font-family="Times,serif" font-size="14.00">updated_at :datetime</text>
</g>
</g>
</svg>
