<?xml version="1.0" encoding="UTF-8" standalone="no"?>
<!DOCTYPE svg PUBLIC "-//W3C//DTD SVG 1.1//EN"
 "http://www.w3.org/Graphics/SVG/1.1/DTD/svg11.dtd">
<!-- Generated by graphviz version 2.38.0 (20140413.2041)
 -->
<!-- Title: models_diagram Pages: 1 -->
<svg width="1018pt" height="319pt"
 viewBox="0.00 0.00 1017.94 319.00" xmlns="http://www.w3.org/2000/svg" xmlns:xlink="http://www.w3.org/1999/xlink">
<g id="graph0" class="graph" transform="scale(1 1) rotate(0) translate(4 315)">
<title>models_diagram</title>
<polygon fill="none" stroke="none" points="-4,4 -4,-315 1013.94,-315 1013.94,4 -4,4"/>
<!-- _diagram_info -->
<g id="node1" class="node"><title>_diagram_info</title>
<text text-anchor="start" x="8" y="-296.6" font-family="Times,serif" font-size="13.00">Models diagram</text>
<text text-anchor="start" x="8" y="-282.6" font-family="Times,serif" font-size="13.00">Date: May 28 2018 &#45; 22:36</text>
<text text-anchor="start" x="8" y="-268.6" font-family="Times,serif" font-size="13.00">Migration version: 20180528235644</text>
<text text-anchor="start" x="8" y="-254.6" font-family="Times,serif" font-size="13.00">Generated by RailRoady 1.5.3</text>
<text text-anchor="start" x="8" y="-240.6" font-family="Times,serif" font-size="13.00">http://railroady.prestonlee.com</text>
</g>
<!-- Status -->
<g id="node2" class="node"><title>Status</title>
<ellipse fill="none" stroke="black" cx="264" cy="-272" rx="32.4942" ry="18"/>
<text text-anchor="middle" x="264" y="-268.3" font-family="Times,serif" font-size="14.00">Status</text>
</g>
<!-- ExternalFile -->
<g id="node3" class="node"><title>ExternalFile</title>
<ellipse fill="none" stroke="black" cx="368" cy="-272" rx="53.8905" ry="18"/>
<text text-anchor="middle" x="368" y="-268.3" font-family="Times,serif" font-size="14.00">ExternalFile</text>
</g>
<!-- Pqr -->
<g id="node13" class="node"><title>Pqr</title>
<ellipse fill="none" stroke="black" cx="368" cy="-178" rx="27" ry="18"/>
<text text-anchor="middle" x="368" y="-174.3" font-family="Times,serif" font-size="14.00">Pqr</text>
</g>
<!-- ExternalFile&#45;&gt;Pqr -->
<g id="edge1" class="edge"><title>ExternalFile&#45;&gt;Pqr</title>
<path fill="none" stroke="#731436" d="M368,-245.451C368,-233.315 368,-218.795 368,-206.427"/>
<ellipse fill="none" stroke="#731436" cx="368" cy="-249.696" rx="4" ry="4"/>
<polygon fill="#731436" stroke="#731436" points="368,-206.227 372.5,-196.227 368,-201.227 368,-196.227 368,-196.227 368,-196.227 368,-201.227 363.5,-196.227 368,-206.227 368,-206.227"/>
</g>
<!-- Permission -->
<g id="node4" class="node"><title>Permission</title>
<ellipse fill="none" stroke="black" cx="490" cy="-272" rx="50.0912" ry="18"/>
<text text-anchor="middle" x="490" y="-268.3" font-family="Times,serif" font-size="14.00">Permission</text>
</g>
<!-- Role -->
<g id="node8" class="node"><title>Role</title>
<ellipse fill="none" stroke="black" cx="490" cy="-178" rx="27.0966" ry="18"/>
<text text-anchor="middle" x="490" y="-174.3" font-family="Times,serif" font-size="14.00">Role</text>
</g>
<!-- Permission&#45;&gt;Role -->
<g id="edge2" class="edge"><title>Permission&#45;&gt;Role</title>
<path fill="none" stroke="#14fb1e" d="M490,-243.691C490,-231.915 490,-218.17 490,-206.386"/>
<polygon fill="#14fb1e" stroke="#14fb1e" points="490,-243.696 485.5,-253.695 490,-248.696 490,-253.696 490,-253.696 490,-253.696 490,-248.696 494.5,-253.696 490,-243.696 490,-243.696"/>
<polygon fill="#14fb1e" stroke="#14fb1e" points="490,-206.227 494.5,-196.227 490,-201.227 490,-196.227 490,-196.227 490,-196.227 490,-201.227 485.5,-196.227 490,-206.227 490,-206.227"/>
</g>
<!-- Ability -->
<g id="node5" class="node"><title>Ability</title>
<polygon fill="none" stroke="black" points="613.5,-290 558.5,-290 558.5,-254 613.5,-254 613.5,-290"/>
<text text-anchor="middle" x="586" y="-268.3" font-family="Times,serif" font-size="14.00">Ability</text>
</g>
<!-- Department -->
<g id="node6" class="node"><title>Department</title>
<ellipse fill="none" stroke="black" cx="588" cy="-178" rx="52.7911" ry="18"/>
<text text-anchor="middle" x="588" y="-174.3" font-family="Times,serif" font-size="14.00">Department</text>
</g>
<!-- User -->
<g id="node9" class="node"><title>User</title>
<ellipse fill="none" stroke="black" cx="557" cy="-105" rx="27.0966" ry="18"/>
<text text-anchor="middle" x="557" y="-101.3" font-family="Times,serif" font-size="14.00">User</text>
</g>
<!-- Department&#45;&gt;User -->
<g id="edge3" class="edge"><title>Department&#45;&gt;User</title>
<path fill="none" stroke="#a8745d" d="M577.349,-152.606C574.457,-145.982 571.314,-138.783 568.383,-132.07"/>
<ellipse fill="none" stroke="#a8745d" cx="579.053" cy="-156.508" rx="4.00002" ry="4.00002"/>
<polygon fill="#a8745d" stroke="#a8745d" points="568.295,-131.87 568.418,-120.905 566.295,-127.288 564.294,-122.705 564.294,-122.705 564.294,-122.705 566.295,-127.288 560.17,-124.506 568.295,-131.87 568.295,-131.87"/>
</g>
<!-- PqrTracking -->
<g id="node7" class="node"><title>PqrTracking</title>
<ellipse fill="none" stroke="black" cx="557" cy="-18" rx="54.6905" ry="18"/>
<text text-anchor="middle" x="557" y="-14.3" font-family="Times,serif" font-size="14.00">PqrTracking</text>
</g>
<!-- Role&#45;&gt;User -->
<g id="edge4" class="edge"><title>Role&#45;&gt;User</title>
<path fill="none" stroke="#3b6ff3" d="M509.585,-156.246C517.908,-147.426 527.625,-137.129 536.088,-128.161"/>
<ellipse fill="none" stroke="#3b6ff3" cx="506.628" cy="-159.38" rx="4.00002" ry="4.00002"/>
<polygon fill="#3b6ff3" stroke="#3b6ff3" points="536.272,-127.965 546.408,-123.781 539.704,-124.329 543.135,-120.692 543.135,-120.692 543.135,-120.692 539.704,-124.329 539.862,-117.604 536.272,-127.965 536.272,-127.965"/>
</g>
<!-- User&#45;&gt;PqrTracking -->
<g id="edge5" class="edge"><title>User&#45;&gt;PqrTracking</title>
<path fill="none" stroke="#64ceb1" d="M526.661,-91.4556C517.37,-86.0054 508.229,-78.621 503,-69 496.555,-57.1429 504.622,-46.5584 516.321,-38.2149"/>
<ellipse fill="none" stroke="#64ceb1" cx="530.208" cy="-93.3596" rx="4.00002" ry="4.00002"/>
<polygon fill="#64ceb1" stroke="#64ceb1" points="516.417,-38.1544 527.274,-36.6115 520.643,-35.4814 524.868,-32.8085 524.868,-32.8085 524.868,-32.8085 520.643,-35.4814 522.463,-29.0055 516.417,-38.1544 516.417,-38.1544"/>
<text text-anchor="middle" x="546.5" y="-57.8" font-family="Times,serif" font-size="14.00">actualTrackings</text>
</g>
<!-- User&#45;&gt;PqrTracking -->
<g id="edge6" class="edge"><title>User&#45;&gt;PqrTracking</title>
<path fill="none" stroke="#a1ab8c" d="M580.288,-85.0276C588.337,-76.0915 594.366,-64.9957 590,-54 588.405,-49.9832 586.106,-46.1602 583.454,-42.6167"/>
<ellipse fill="none" stroke="#a1ab8c" cx="577.32" cy="-88.0075" rx="4.00002" ry="4.00002"/>
<polygon fill="#a1ab8c" stroke="#a1ab8c" points="583.322,-42.4646 580.192,-31.955 580.054,-38.6805 576.786,-34.8963 576.786,-34.8963 576.786,-34.8963 580.054,-38.6805 573.38,-37.8375 583.322,-42.4646 583.322,-42.4646"/>
<text text-anchor="middle" x="629" y="-57.8" font-family="Times,serif" font-size="14.00">destTrackings</text>
</g>
<!-- ApplicationRecord -->
<g id="node10" class="node"><title>ApplicationRecord</title>
<ellipse fill="none" stroke="black" cx="709" cy="-272" rx="77.1866" ry="18"/>
<text text-anchor="middle" x="709" y="-268.3" font-family="Times,serif" font-size="14.00">ApplicationRecord</text>
</g>
<!-- Log -->
<g id="node11" class="node"><title>Log</title>
<ellipse fill="none" stroke="black" cx="831" cy="-272" rx="27" ry="18"/>
<text text-anchor="middle" x="831" y="-268.3" font-family="Times,serif" font-size="14.00">Log</text>
</g>
<!-- PermissionRole -->
<g id="node12" class="node"><title>PermissionRole</title>
<ellipse fill="none" stroke="black" cx="943" cy="-272" rx="66.8882" ry="18"/>
<text text-anchor="middle" x="943" y="-268.3" font-family="Times,serif" font-size="14.00">PermissionRole</text>
</g>
</g>
</svg>
